<?xml version="1.0" standalone="no"?>
<!DOCTYPE svg PUBLIC "-//W3C//DTD SVG 20010904//EN"
 "http://www.w3.org/TR/2001/REC-SVG-20010904/DTD/svg10.dtd">
<svg version="1.0" xmlns="http://www.w3.org/2000/svg"
 width="700.000000pt" height="700.000000pt" viewBox="0 0 700.000000 700.000000"
 preserveAspectRatio="xMidYMid meet">
<metadata>
Created by potrace 1.11, written by Peter Selinger 2001-2013
</metadata>
<g transform="translate(0.000000,700.000000) scale(0.100000,-0.100000)"
fill="#000000" stroke="none">
<path d="M3268 6996 c-1 -2 -39 -6 -84 -10 -106 -7 -213 -22 -364 -51 -485
-91 -991 -317 -1404 -626 -730 -548 -1218 -1342 -1366 -2221 -22 -133 -24
-151 -37 -288 -10 -105 -10 -500 0 -595 4 -38 10 -99 13 -135 21 -224 141
-697 219 -865 7 -16 23 -55 35 -85 18 -47 125 -266 150 -310 5 -8 32 -55 61
-105 246 -422 614 -814 1039 -1107 251 -173 597 -340 900 -436 98 -31 309 -86
370 -96 19 -3 44 -8 55 -10 11 -2 40 -7 65 -10 25 -3 56 -8 70 -11 14 -3 43
-7 65 -9 22 -3 72 -8 110 -13 141 -15 631 -8 734 12 9 1 39 6 66 9 263 34 637
134 833 222 29 13 55 24 59 24 14 0 265 127 363 183 281 163 489 324 730 566
353 355 620 770 797 1241 81 217 166 555 188 755 3 28 8 64 10 80 26 179 26
680 -1 865 -52 353 -106 564 -221 855 -58 146 -171 374 -239 483 -21 35 -44
71 -49 80 -31 52 -99 148 -163 232 -465 609 -1090 1035 -1835 1249 -101 29
-255 64 -332 75 -22 3 -51 8 -65 11 -55 12 -71 14 -142 20 -40 4 -86 9 -103
12 -33 5 -521 13 -527 9z m532 -239 c14 -3 56 -8 95 -12 38 -4 72 -8 75 -10 3
-1 28 -6 55 -9 28 -4 57 -9 65 -11 8 -2 31 -7 50 -10 62 -10 315 -77 325 -86
5 -5 16 -9 24 -9 36 0 322 -116 476 -193 112 -55 310 -176 419 -254 579 -417
1003 -997 1225 -1673 17 -52 33 -104 36 -115 2 -11 16 -65 30 -120 22 -87 53
-250 69 -366 15 -102 21 -237 21 -454 0 -279 -5 -341 -41 -560 -113 -677 -456
-1317 -963 -1799 -36 -33 -74 -70 -86 -81 -93 -88 -324 -258 -475 -350 -77
-47 -371 -203 -390 -206 -6 -2 -25 -9 -120 -47 -202 -80 -383 -130 -675 -186
-12 -2 -48 -7 -80 -11 -33 -4 -69 -9 -80 -11 -46 -9 -240 -18 -375 -18 -136 1
-357 11 -369 18 -3 2 -34 7 -68 10 -35 4 -68 8 -75 11 -7 2 -31 7 -53 10 -78
12 -156 28 -193 39 -9 3 -30 8 -47 11 -42 7 -234 67 -330 103 -598 224 -1112
612 -1501 1132 -47 62 -134 189 -134 195 0 2 -13 23 -29 47 -58 88 -165 296
-229 448 -114 268 -216 670 -237 930 -3 36 -7 88 -10 115 -12 124 -5 487 10
585 3 14 7 50 10 80 3 30 7 62 10 70 2 8 7 35 10 60 5 35 51 248 69 315 21 82
86 278 105 320 6 11 31 71 57 133 48 116 160 328 214 409 17 24 30 46 30 49 0
12 169 243 241 329 284 340 665 644 1054 838 209 104 487 208 675 252 58 14
171 37 200 41 19 3 41 7 48 9 7 3 34 7 60 10 26 4 58 8 71 10 13 3 61 7 105
11 45 3 83 8 85 10 6 6 511 -3 541 -9z"/>
<path d="M4479 5775 c-39 -21 -78 -88 -100 -173 -16 -62 -18 -98 -14 -197 5
-129 12 -229 21 -285 3 -19 7 -49 10 -66 2 -17 13 -60 23 -95 11 -35 41 -146
66 -247 26 -101 59 -214 75 -251 16 -38 36 -97 44 -132 8 -35 24 -98 35 -139
12 -41 23 -88 26 -105 3 -16 10 -52 15 -80 37 -200 35 -568 -4 -798 -8 -45
-62 -221 -77 -249 -7 -13 -11 -23 -10 -23 2 0 -4 -16 -12 -35 l-14 -35 -8 30
c-7 29 -22 81 -52 180 -21 67 -101 291 -120 335 -147 341 -305 610 -457 777
-93 102 -167 133 -214 90 -31 -29 -69 -164 -86 -312 -19 -160 -25 -462 -12
-640 9 -131 16 -208 21 -240 2 -16 7 -52 10 -80 3 -27 10 -75 15 -105 5 -30
12 -73 15 -95 4 -32 26 -141 60 -308 30 -142 173 -560 254 -742 10 -22 31 -69
47 -105 15 -36 75 -157 133 -270 57 -113 118 -233 135 -266 30 -59 33 -61 67
-60 98 5 437 318 640 591 24 33 54 74 66 90 93 126 245 404 316 575 79 194
152 441 182 620 3 19 8 49 11 65 36 203 41 640 9 865 -2 19 -7 57 -11 84 -3
27 -8 58 -10 70 -2 12 -11 56 -19 99 -115 602 -400 1200 -720 1513 -147 143
-271 195 -356 149z"/>
<path d="M2261 5720 c-164 -106 -370 -378 -508 -668 -29 -62 -53 -115 -53
-117 0 -3 -19 -44 -41 -92 -167 -355 -248 -661 -274 -1033 -8 -118 -8 -479 0
-575 13 -162 44 -354 82 -505 92 -374 268 -749 502 -1070 165 -228 397 -472
588 -618 l41 -32 55 87 c99 160 125 207 206 373 85 172 154 341 214 521 74
220 168 625 202 869 2 14 6 39 8 55 3 17 9 59 12 95 4 36 9 73 10 82 20 100
27 617 12 783 -12 126 -44 280 -70 334 -35 73 -75 69 -168 -17 -241 -222 -514
-745 -643 -1227 -15 -55 -29 -105 -31 -112 -2 -6 -12 -9 -22 -7 -38 10 -106
224 -138 429 -20 131 -28 496 -13 640 15 147 41 274 84 405 145 454 140 438
149 520 4 30 19 129 34 220 53 309 33 570 -50 659 -50 53 -107 53 -188 1z"/>
</g>
</svg>
