<svg width="18" height="18" viewBox="0 0 18 18" fill="none" xmlns="http://www.w3.org/2000/svg">
<path d="M8.1665 13.9998H9.83317V12.3332H8.1665V13.9998ZM8.99984 0.666504C4.39984 0.666504 0.666504 4.39984 0.666504 8.99984C0.666504 13.5998 4.39984 17.3332 8.99984 17.3332C13.5998 17.3332 17.3332 13.5998 17.3332 8.99984C17.3332 4.39984 13.5998 0.666504 8.99984 0.666504ZM8.99984 15.6665C5.32484 15.6665 2.33317 12.6748 2.33317 8.99984C2.33317 5.32484 5.32484 2.33317 8.99984 2.33317C12.6748 2.33317 15.6665 5.32484 15.6665 8.99984C15.6665 12.6748 12.6748 15.6665 8.99984 15.6665ZM8.99984 3.99984C7.15817 3.99984 5.6665 5.4915 5.6665 7.33317H7.33317C7.33317 6.4165 8.08317 5.6665 8.99984 5.6665C9.9165 5.6665 10.6665 6.4165 10.6665 7.33317C10.6665 8.99984 8.1665 8.7915 8.1665 11.4998H9.83317C9.83317 9.62484 12.3332 9.4165 12.3332 7.33317C12.3332 5.4915 10.8415 3.99984 8.99984 3.99984Z" fill="#BFBFBF"/>
</svg>
