<svg width="20" height="22" viewBox="0 0 20 22" fill="none" xmlns="http://www.w3.org/2000/svg">
<path d="M14.59 6.65839L8 13.3963L4.41 9.73596L3 11.1776L8 16.2899L16 8.11027L14.59 6.65839ZM10 0.953125C4.48 0.953125 0 5.5337 0 11.1776C0 16.8215 4.48 21.4021 10 21.4021C15.52 21.4021 20 16.8215 20 11.1776C20 5.5337 15.52 0.953125 10 0.953125ZM10 19.3572C5.58 19.3572 2 15.6968 2 11.1776C2 6.65839 5.58 2.99802 10 2.99802C14.42 2.99802 18 6.65839 18 11.1776C18 15.6968 14.42 19.3572 10 19.3572Z" fill="#2B140E"/>
</svg>
