<svg xmlns="http://www.w3.org/2000/svg"><symbol id="icon_calendar" viewBox="0 0 18 20"><path d="M4 10h2v2H4v-2zm14-6v14c0 1.1-.9 2-2 2H2a2 2 0 0 1-2-2L.01 4C.01 2.9.89 2 2 2h1V0h2v2h8V0h2v2h1c1.1 0 2 .9 2 2zM2 6h14V4H2v2zm14 12V8H2v10h14zm-4-6v-2h2v2h-2zm-4 0v-2h2v2H8zm-4 2h2v2H4v-2zm8 2v-2h2v2h-2zm-4 0v-2h2v2H8z"/></symbol><symbol id="icon_plus" viewBox="0 0 20 20"><path d="M11 5H9v4H5v2h4v4h2v-4h4V9h-4V5zm-1-5C4.48 0 0 4.48 0 10s4.48 10 10 10 10-4.48 10-10S15.52 0 10 0zm0 18c-4.41 0-8-3.59-8-8s3.59-8 8-8 8 3.59 8 8-3.59 8-8 8z"/></symbol><symbol id="icon_question" viewBox="0 0 18 18"><path d="M8.166 14h1.667v-1.667H8.166V14zM9 .667A8.336 8.336 0 0 0 .667 9c0 4.6 3.733 8.333 8.333 8.333S17.333 13.6 17.333 9 13.6.667 9 .667zm0 15A6.676 6.676 0 0 1 2.333 9 6.676 6.676 0 0 1 9 2.333 6.676 6.676 0 0 1 15.666 9 6.676 6.676 0 0 1 9 15.666zM9 4a3.332 3.332 0 0 0-3.333 3.333h1.666c0-.917.75-1.667 1.667-1.667.916 0 1.666.75 1.666 1.667 0 1.667-2.5 1.458-2.5 4.167h1.667c0-1.875 2.5-2.084 2.5-4.167A3.332 3.332 0 0 0 9 4z"/></symbol><symbol id="icon_quit" viewBox="0 0 18 19"><path d="M7.09 13.09L8.5 14.5l5-5-5-5-1.41 1.41L9.67 8.5H0v2h9.67l-2.58 2.59zM16 .5H2a2 2 0 0 0-2 2v4h2v-4h14v14H2v-4H0v4a2 2 0 0 0 2 2h14c1.1 0 2-.9 2-2v-14c0-1.1-.9-2-2-2z"/></symbol><symbol id="icon_refresh" viewBox="0 0 612.035 612.035"><path d="M323.128 56.236l5.646-9.57 40.17-40.169C271.247-13.921 165.482 13.786 89.65 89.646-16.421 195.717-28.355 360.261 53.875 479.49L10.98 522.386l137.7 19.667-19.667-137.7-34.968 34.967c-60.978-96.724-49.322-226.078 34.94-310.34 53.244-53.243 124.486-77.501 194.143-72.744zm258.264 13.743l-137.7-19.667 19.668 137.7 38.25-38.25c78.726 98.31 72.521 242.186-18.583 333.317-61.116 61.117-145.989 84.039-224.882 68.739l-45.65 45.649c105.654 33.799 226.05 8.791 309.895-75.054 112.858-112.858 119.146-291.979 18.805-412.209l40.197-40.225z"/></symbol><symbol id="icon_star" viewBox="0 0 39 37"><path fill-rule="evenodd" d="M19.5 2.501l5.603 10.056 11.395 2.166-7.933 8.382 1.44 11.394L19.5 29.623 8.995 34.499l1.439-11.394-7.932-8.382 11.395-2.166L19.5 2.501"/></symbol><symbol id="icon_tick" viewBox="0 0 20 22"><path d="M14.59 6.658L8 13.396l-3.59-3.66L3 11.178l5 5.112 8-8.18-1.41-1.452zM10 .953c-5.52 0-10 4.58-10 10.225 0 5.643 4.48 10.224 10 10.224s10-4.58 10-10.224S15.52.953 10 .953zm0 18.404c-4.42 0-8-3.66-8-8.18 0-4.519 3.58-8.179 8-8.179s8 3.66 8 8.18c0 4.519-3.58 8.18-8 8.18z"/></symbol></svg>