<svg width="234" height="100" viewBox="0 0 234 100" fill="none" xmlns="http://www.w3.org/2000/svg"><path d="M36.677 0C16.472 0 0 16.5 0 36.974 0 57.45 16.354 73.947 36.677 73.947c20.322 0 36.676-16.497 36.676-36.971C73.353 16.5 56.878 0 36.673 0h.004zm0 71.9c-19.122 0-34.632-15.656-34.632-34.926-.003-19.27 15.513-34.928 34.629-34.928 19.121 0 34.631 15.659 34.631 34.928 0 19.27-15.513 34.926-34.631 34.926h.003zm19-49.5c-3.01-6.744-6.615-9.635-7.815-9.514-1.685.12-1.927 3.372-1.806 4.819 0 .481.12 2.77.605 4.577.36 1.325.84 2.648 1.2 3.974v.121c.243.72.603 1.447.842 2.167 1.923 6.024.601 12.166.601 12.405v-.242c-.363 1.447-.72 2.41-1.082 3.015-.121.242-.121.363-.242.48-2.284-9.516-7.695-16.139-8.778-15.176-1.083.962-2.166 9.274.363 19.39 1.924 7.95 5.771 13.73 6.373 14.693 0 0 13.708-9.392 12.746-27.218 0-6.024-1.443-10.116-3.007-13.491zM25.132 44.2c0-.121-.121-.363-.242-.481-.36-.603-.72-1.565-1.08-3.012v.242c-.121-.242-1.446-6.387.48-12.405.243-.723.482-1.447.842-2.17v-.121c.48-1.323.961-2.649 1.2-3.974.484-1.805.605-4.214.605-4.577.121-1.444 0-4.695-1.805-4.816-1.083-.121-4.81 2.77-7.695 9.514-1.564 3.493-3.01 7.585-3.249 13.609-.84 17.826 12.746 27.218 12.746 27.218.723-.962 4.45-6.623 6.373-14.692 2.408-10.117 1.446-18.426.363-19.391-.844-1.08-6.252 5.54-8.538 15.056z" fill="#E08524"/><path d="M58.922 36.012c-.363-6.024-1.805-10.12-3.248-13.613-3.007-6.744-6.615-9.634-7.816-9.513-1.684.12-1.923 3.372-1.802 4.819 0 .481.12 2.77.601 4.576.363 1.323.841 2.649 1.201 3.975v.12c.242.721.602 1.448.844 2.168 1.924 6.024.599 12.166.599 12.405v-.242c-.36 1.447-.72 2.41-1.08 3.014-.12.243-.12.364-.242.482-2.283-9.517-7.694-16.14-8.777-15.178-1.083.963-2.166 9.275.363 19.391 1.92 7.95 5.768 13.73 6.37 14.693.241 0 13.95-9.274 12.987-27.097zM25.132 44.2c0-.121-.122-.364-.243-.482-.36-.602-.72-1.565-1.08-3.011v.242c-.12-.242-1.445-6.387.481-12.405.24-.723.481-1.447.841-2.17v-.121c.481-1.323.962-2.649 1.201-3.975.484-1.804.605-4.213.605-4.576.12-1.447 0-4.695-1.806-4.816-1.083-.121-4.809 2.77-7.698 9.514-1.56 3.493-3.006 7.585-3.245 13.609-.844 17.826 12.746 27.218 12.746 27.218.723-.962 4.45-6.623 6.373-14.693 2.407-10.116 1.445-18.425.363-19.39-.844-1.081-6.252 5.539-8.539 15.056zm134.485-33.508c-.242-2.421-1.21-4.48-3.025-6.293-1.811-1.816-3.623-2.906-5.556-3.39-1.936-.484-3.384-.605-4.352-.121-.121 0-.121.121-.121.242 0 .242.605 1.937 1.936 4.843 2.416 5.083 3.502 10.77 3.502 16.821 0 5.449-.484 10.773-1.452 15.855-.965 5.083-2.171 9.438-3.623 12.95-1.452 3.508-3.022 6.656-4.713 9.317-1.693 2.664-3.263 4.6-4.712 5.933-1.452 1.331-2.659 1.816-3.502 1.695-3.267-.364-5.318-6.417-6.165-17.914a126.291 126.291 0 0 0 9.062-29.047c.968-5.445.726-9.196-.484-11.375-1.207-2.18-3.139-2.664-5.919-1.574-3.267 1.21-5.801 3.995-7.855 8.233-2.057 4.235-3.146 9.68-3.505 16.095-.484 9.683.241 18.152 2.298 25.414-1.815 3.39-3.626 6.054-5.438 7.75-1.815 1.812-3.267 2.539-4.594 2.297-2.175-.364-3.866-4.117-5.197-11.255-1.21-7.143-1.331-15.734-.363-25.78 1.331-13.918 2.42-22.146 3.388-24.688 0-.242-.484-.364-1.452-.485-1.089-.12-2.42 0-4.11.364-1.694.363-3.022.847-4.35 1.937-.726.605-1.33 2.3-1.694 5.206-.363 2.903-.722 9.317-1.085 19.482-.242 5.933 0 11.617.725 16.82.723 5.207 1.812 9.566 3.14 12.95 1.331 3.39 2.904 6.054 4.594 7.991 1.694 1.938 3.382 2.661 5.076 2.54 3.381-.484 7.368-4.48 12.083-12.226 1.331 3.996 2.901 7.023 4.833 9.199 1.815 2.18 3.745 3.148 5.56 3.027 2.292-.121 5.075-1.937 8.457-5.57 3.384-3.629 6.527-8.106 9.548-13.675 3.022-5.567 5.436-12.223 7.25-20.212 1.936-7.985 2.538-15.73 1.815-23.356zM127.35 30.42c.121-5.327.726-9.683 1.694-13.313.968-3.632 2.054-5.57 3.264-6.054.484-.12.847.122 1.21.848.723 1.816.723 4.843 0 8.957-1.573 8.715-3.63 16.7-6.165 23.72a273.852 273.852 0 0 1 0-14.158h-.003zm44.347 21.18c.363-2.3-.121-4.36-1.327-6.054-1.21-1.695-2.901-2.664-4.955-2.785-2.779-.242-5.559.969-7.976 3.754-2.534 2.663-4.107 6.417-4.591 11.136-.605 4.722.121 8.472 2.296 11.012 2.053 2.542 4.591 3.995 7.371 4.116 3.263.122 6.161-1.452 8.699-4.964 2.537-3.508 4.352-7.743 5.317-13.067.121-.363 0-.606-.363-.484-.484.12-.726.363-.968.726-1.207 5.08-2.901 8.954-4.951 11.493-2.057 2.543-4.111 3.633-6.044 3.39-1.451-.242-2.54-1.695-3.263-4.358-.605-2.664-.726-6.051-.242-10.044.968-7.504 2.299-11.375 3.747-11.375 1.089 0 1.089 2.906.121 8.59-.726 4.117-1.814 6.78-3.145 8.11-.484.484-.605.847-.605 1.09 0 .363.363.363 1.089.12a19.207 19.207 0 0 0 6.285-4.237c2.057-2.056 3.146-4.11 3.508-6.17h-.003z" fill="#E08524"/><path d="M194.297 10.692c.484-3.39.363-6.172-.121-8.109-.605-1.937-1.694-2.785-3.145-2.543-3.382.727-6.887 6.296-10.511 16.945-3.623 10.65-5.922 21.785-6.887 33.524-.363 4.117-.363 7.867 0 11.375.363 3.512 1.21 6.415 2.659 8.836 1.331 2.422 3.142 3.63 5.435 3.75 1.936.122 4.11-1.695 6.527-5.448 2.417-3.75 4.108-8.47 5.196-14.278 0-.363 0-.484-.363-.484-.604 0-.846.242-.967.605-.968 4.359-2.175 8.11-3.745 11.015-1.573 2.906-3.025 4.356-4.352 4.114-2.172-.364-3.019-5.449-2.535-15.13a196.877 196.877 0 0 0 8.215-23.843c2.178-8.227 3.747-15.125 4.594-20.329zM181.609 48.33c.723-9.438 1.933-18.88 3.865-28.32 1.936-9.439 3.624-14.4 5.197-14.884l.363.12c.605.606.726 2.664.484 6.052-1.089 10.164-4.353 22.753-9.909 37.761v-.729z" fill="#E08524"/><path d="M189.097 70.357c.121.484.726.847 1.815 1.09a14.99 14.99 0 0 0 3.263.363c1.089 0 1.573-.243 1.573-.606v-.847c1.691-10.77 3.261-16.821 4.831-17.914.121 0 .241 0 .241.121v.727c0 .363-.12.847-.12 1.21 0 .485-.121 1.09-.363 2.059-.121.847-.242 1.695-.363 2.421-.363 2.661-.484 4.84-.363 6.654a16.25 16.25 0 0 0 .847 4.237c.362.969.843 1.695 1.569 2.18.605.484 1.21.726 1.815.726s1.086 0 1.691-.12c1.331-.485 2.779-2.422 4.228-5.813 1.452-3.39 2.662-7.38 3.506-11.86v-.12c0-.242 0-.364-.363-.364-.484.122-.726.364-.968.606-2.417 10.046-4.228 14.886-5.559 14.523-.726-.242-.968-.847-.968-2.058 0-1.21.121-2.664.363-4.722.242-1.937.605-3.872.847-5.93.363-1.937.605-4.238 1.089-6.656.363-2.422.604-4.36.846-5.81.121-1.089 0-1.936-.483-2.3-.484-.484-1.21-.484-2.178-.12-3.987 1.452-7.129 7.143-9.425 17.187.726-7.746 1.089-12.223 1.331-13.192.242-2.058.484-3.39.605-3.875-.242.121-.968 0-2.178 0-1.207 0-2.535.121-3.986.606-1.452.484-2.175.968-2.296 1.695v.605c0 .363 0 .848-.121 1.332v1.695c0 1.211-.121 3.512-.363 7.144-.242 3.63-.363 6.898-.484 9.922 0 3.148 0 4.84.121 5.204z" fill="#E08524"/><path d="M219.429 43.005c-.121-.12-.968-.242-2.175-.363-1.331 0-2.779.121-4.228.605-1.573.364-2.42.969-2.42 1.695l-.242 2.059c0 .726-.121 1.816-.121 3.39-.363 5.93-.121 11.133.726 15.489.847 4.359 2.42 6.656 4.716 6.656 1.572 0 3.142-2.18 4.709-6.66 0 .61-.242 2.06-.484 4.36-.242 2.18-.363 3.874-.484 4.964-2.777.363-5.435 1.332-7.852 2.785a17.9 17.9 0 0 0-6.043 5.563c-1.936 2.785-3.143 5.57-3.382 8.355-.242 2.782.242 4.837 1.452 6.411 1.207 1.453 2.898 2.058 5.193 1.453 5.802-1.332 10.514-7.259 14.017-17.668 3.145.968 6.406 2.542 9.669 4.84.242 0 .605-.485.847-1.453.844-2.906.484-5.086-1.21-6.66-1.935-1.937-4.352-3.145-7.371-3.626 1.573-6.538 3.264-17.43 4.955-32.918-.121-.121-.726-.242-1.815-.363-1.089-.122-2.175.12-3.503.484-1.33.363-1.935.968-1.935 1.574a31.138 31.138 0 0 1-.363 2.297l-.363 2.785v.121c0 .484-.121.969-.242 1.453l-.363 1.21c0 .364-.121.845-.242 1.45a360.815 360.815 0 0 0-1.086 6.536c-.242 1.574-.605 3.27-.968 4.964a34.98 34.98 0 0 1-.965 3.627c-.242.726-.605 1.09-.968 1.09s-.484-.727-.484-2.059c0-1.332.121-3.387.484-5.93.242-2.543.605-5.324 1.089-8.348a255.41 255.41 0 0 1 1.452-10.168zm-8.82 53.856c-1.936.727-3.505.484-4.594-.605-1.089-1.09-1.573-2.785-1.573-4.965.121-2.176.847-4.355 2.299-6.41 2.295-3.27 6.161-4.48 11.72-3.633-1.567 8.957-4.107 14.16-7.852 15.613z" fill="#E08524"/></svg>