<svg width="234" height="100" viewBox="0 0 234 100" fill="none" xmlns="http://www.w3.org/2000/svg">
<path d="M36.6766 0C16.4721 0 0 16.5 0 36.9745C0 57.4489 16.3541 73.9459 36.6766 73.9459C56.999 73.9459 73.3531 57.4489 73.3531 36.9745C73.3531 16.5 56.878 0 36.6736 0H36.6766ZM36.6766 71.8997C17.5549 71.8997 2.04465 56.2442 2.04465 36.9745C2.04162 17.7048 17.5579 2.04623 36.6736 2.04623C55.7952 2.04623 71.3055 17.7048 71.3055 36.9745C71.3055 56.2442 55.7922 71.8997 36.6736 71.8997H36.6766ZM55.6773 22.3996C52.6678 15.6555 49.0624 12.7647 47.8616 12.8858C46.1769 13.0069 45.935 16.2579 46.0559 17.7048C46.0559 18.1861 46.1769 20.4744 46.6609 22.2815C47.0208 23.6074 47.5017 24.9301 47.8616 26.256V26.377C48.1036 27.0975 48.4635 27.8239 48.7025 28.5444C50.6261 34.568 49.3044 40.7098 49.3044 40.9489V40.7067C48.9414 42.1536 48.5845 43.1162 48.2216 43.7216C48.1006 43.9638 48.1006 44.0848 47.9796 44.2029C45.696 34.6861 40.285 28.0631 39.2021 29.0256C38.1193 29.9882 37.0365 38.3003 39.5651 48.4164C41.4888 56.3653 45.3361 62.1468 45.938 63.1094C45.938 63.1094 59.6456 53.7167 58.6837 35.8908C58.6837 29.8671 57.241 25.7747 55.6773 22.3996ZM25.1316 44.1999C25.1316 44.0788 25.0106 43.8366 24.8896 43.7186C24.5297 43.1162 24.1698 42.1536 23.8098 40.7067V40.9489C23.6888 40.7067 22.3641 34.562 24.2907 28.5444C24.5327 27.8209 24.7717 27.0975 25.1316 26.374V26.2529C25.6125 24.9301 26.0934 23.6043 26.3324 22.2785C26.8163 20.4744 26.9373 18.065 26.9373 17.7017C27.0583 16.2579 26.9373 13.0069 25.1316 12.8858C24.0488 12.7647 20.3224 15.6555 17.437 22.3996C15.8732 25.8927 14.4275 29.9852 14.1885 36.0089C13.3477 53.8347 26.9343 63.2274 26.9343 63.2274C27.6572 62.2648 31.3835 56.6044 33.3071 48.5345C35.7147 38.4183 34.7529 30.1093 33.6701 29.1437C32.8262 28.0631 27.4182 34.6831 25.1316 44.1999Z" fill="#E08524"/>
<path d="M58.9223 36.0118C58.5593 29.9881 57.1166 25.8926 55.6738 22.3995C52.6674 15.6554 49.059 12.7646 47.8582 12.8857C46.1735 13.0068 45.9346 16.2578 46.0555 17.7047C46.0555 18.186 46.1765 20.4743 46.6574 22.2814C47.0204 23.6042 47.4983 24.93 47.8582 26.2559V26.3769C48.1002 27.0974 48.4601 27.8238 48.7021 28.5443C50.6258 34.5679 49.301 40.7097 49.301 40.9488V40.7066C48.941 42.1535 48.5811 43.1161 48.2212 43.7215C48.1002 43.9637 48.1002 44.0847 47.9792 44.2028C45.6956 34.686 40.2846 28.063 39.2018 29.0255C38.1189 29.9881 37.0361 38.3002 39.5647 48.4163C41.4853 56.3652 45.3327 62.1467 45.9346 63.1093C46.1765 63.1093 59.8841 53.8346 58.9223 36.0118ZM25.1312 44.1998C25.1312 44.0787 25.0102 43.8365 24.8892 43.7185C24.5293 43.1161 24.1694 42.1535 23.8095 40.7066V40.9488C23.6885 40.7066 22.3637 34.5619 24.2904 28.5443C24.5293 27.8208 24.7713 27.0974 25.1312 26.3739V26.2528C25.6121 24.93 26.093 23.6042 26.332 22.2784C26.8159 20.4743 26.9369 18.0649 26.9369 17.7016C27.0579 16.2547 26.9369 13.0068 25.1312 12.8857C24.0484 12.7646 20.3221 15.6554 17.4335 22.3995C15.8728 25.8926 14.4271 29.9851 14.1881 36.0088C13.3443 53.8346 26.9339 63.2273 26.9339 63.2273C27.6568 62.2647 31.3831 56.6043 33.3068 48.5344C35.7144 38.4182 34.7525 30.1092 33.6697 29.1436C32.8259 28.063 27.4178 34.683 25.1312 44.1998Z" fill="#E08524"/>
<path d="M159.617 10.6923C159.375 8.27069 158.407 6.21235 156.592 4.3992C154.781 2.58301 152.969 1.4933 151.036 1.00898C149.1 0.524665 147.652 0.403591 146.684 0.887907C146.563 0.887907 146.563 1.00899 146.563 1.13006C146.563 1.37222 147.168 3.06733 148.499 5.97323C150.915 11.0555 152.001 16.7432 152.001 22.7941C152.001 28.2427 151.517 33.5671 150.549 38.6494C149.584 43.7317 148.378 48.0875 146.926 51.5988C145.474 55.107 143.904 58.2551 142.213 60.9158C140.52 63.5795 138.95 65.5168 137.501 66.8487C136.049 68.1805 134.842 68.6648 133.999 68.5438C130.732 68.1805 128.681 62.1266 127.834 50.6302C132.014 41.349 135.057 31.5959 136.896 21.5833C137.864 16.1378 137.622 12.3874 136.412 10.208C135.205 8.02854 133.273 7.54422 130.493 8.63393C127.226 9.84472 124.692 12.6295 122.638 16.8673C120.581 21.102 119.492 26.5476 119.133 32.9617C118.649 42.645 119.374 51.1145 121.431 58.3762C119.616 61.7664 117.805 64.4301 115.993 66.1252C114.178 67.9384 112.726 68.6649 111.399 68.4227C109.224 68.0595 107.533 64.306 106.202 57.1684C104.992 50.0248 104.871 41.4342 105.839 31.3877C107.17 17.4697 108.259 9.24235 109.227 6.69969C109.227 6.45753 108.743 6.33645 107.775 6.21537C106.686 6.09429 105.355 6.21537 103.665 6.57861C101.971 6.94184 100.643 7.42616 99.3152 8.51587C98.5893 9.12126 97.9844 10.8164 97.6214 13.7223C97.2584 16.6251 96.8985 23.0393 96.5356 33.2039C96.2936 39.1367 96.5356 44.8214 97.2615 50.0248C97.9844 55.2311 99.0732 59.59 100.401 62.9741C101.732 66.3643 103.305 69.0281 104.995 70.9653C106.689 72.9026 108.377 73.6261 110.071 73.505C113.452 73.0207 117.439 69.0251 122.154 61.279C123.485 65.2747 125.055 68.3016 126.987 70.478C128.802 72.6574 130.732 73.6261 132.547 73.505C134.839 73.3839 137.622 71.5677 141.004 67.9354C144.388 64.306 147.531 59.8291 150.552 54.2595C153.574 48.6929 155.988 42.0366 157.802 34.0484C159.738 26.0632 160.34 18.3172 159.617 10.6923ZM127.35 30.419C127.471 25.0916 128.076 20.7358 129.044 17.1064C130.012 13.4741 131.098 11.5368 132.308 11.0525C132.792 10.9314 133.155 11.1736 133.518 11.9C134.241 13.7162 134.241 16.7432 133.518 20.8569C131.945 29.5715 129.888 37.5567 127.353 44.5762C127.231 39.858 127.231 35.1373 127.353 30.419H127.35ZM171.697 51.5988C172.06 49.2983 171.576 47.2399 170.37 45.5448C169.16 43.8497 167.469 42.8811 165.415 42.76C162.636 42.5179 159.856 43.7287 157.439 46.5135C154.905 49.1772 153.332 52.9307 152.848 57.6497C152.243 62.3718 152.969 66.1222 155.144 68.6618C157.197 71.2045 159.735 72.6574 162.515 72.7785C165.778 72.8996 168.676 71.3256 171.214 67.8143C173.751 64.306 175.566 60.0713 176.531 54.7468C176.652 54.3836 176.531 54.1414 176.168 54.2625C175.684 54.3836 175.442 54.6258 175.2 54.989C173.993 60.0683 172.299 63.9428 170.249 66.4824C168.192 69.0251 166.138 70.1148 164.205 69.8726C162.754 69.6305 161.665 68.1775 160.942 65.5138C160.337 62.85 160.216 59.4629 160.7 55.4703C161.668 47.9664 162.999 44.0949 164.447 44.0949C165.536 44.0949 165.536 47.0008 164.568 52.6855C163.842 56.8022 162.754 59.4659 161.423 60.7947C160.939 61.279 160.818 61.6423 160.818 61.8844C160.818 62.2477 161.181 62.2477 161.907 62.0055C164.262 61.0248 166.399 59.5842 168.192 57.7678C170.249 55.7124 171.338 53.6571 171.7 51.5988H171.697Z" fill="#E08524"/>
<path d="M194.297 10.6923C194.781 7.30207 194.66 4.52028 194.176 2.58302C193.571 0.645755 192.482 -0.201798 191.031 0.0403596C187.649 0.766833 184.144 6.33646 180.52 16.9854C176.897 27.6342 174.598 38.7705 173.633 50.5091C173.27 54.6258 173.27 58.3762 173.633 61.8844C173.996 65.3957 174.843 68.2986 176.292 70.7202C177.623 73.1418 179.434 74.3495 181.727 74.4706C183.663 74.5917 185.837 72.7755 188.254 69.0221C190.671 65.2716 192.362 60.5526 193.45 54.7438C193.45 54.3806 193.45 54.2595 193.087 54.2595C192.483 54.2595 192.241 54.5017 192.12 54.8649C191.152 59.2237 189.945 62.9742 188.375 65.8801C186.802 68.7859 185.35 70.2359 184.023 69.9937C181.851 69.6305 181.004 64.5452 181.488 54.8649C184.733 47.101 187.477 39.1368 189.703 31.0214C191.881 22.7941 193.45 15.8956 194.297 10.6923ZM181.609 48.3297C182.332 38.8916 183.542 29.4504 185.474 20.0093C187.41 10.5712 189.098 5.60999 190.671 5.12568L191.034 5.24676C191.639 5.85215 191.76 7.91049 191.518 11.2977C190.429 21.4623 187.165 34.0514 181.609 49.0592V48.3327V48.3297Z" fill="#E08524"/>
<path d="M189.097 70.3567C189.218 70.841 189.823 71.2043 190.912 71.4464C192.001 71.6886 193.087 71.8097 194.175 71.8097C195.264 71.8097 195.748 71.5675 195.748 71.2043V70.3567C197.439 59.5867 199.009 53.5358 200.579 52.4431C200.7 52.4431 200.82 52.4431 200.82 52.5642V53.2906C200.82 53.6539 200.7 54.1382 200.7 54.5014C200.7 54.9857 200.579 55.5911 200.337 56.5598C200.216 57.4073 200.095 58.2549 199.974 58.9813C199.611 61.6421 199.49 63.8215 199.611 65.6346C199.732 67.4508 200.095 68.7827 200.458 69.8724C200.82 70.841 201.301 71.5675 202.027 72.0518C202.632 72.5361 203.237 72.7783 203.842 72.7783C204.447 72.7783 204.928 72.7783 205.533 72.6572C206.864 72.1729 208.312 70.2356 209.761 66.8454C211.213 63.4552 212.423 59.4657 213.267 54.9857V54.8647C213.267 54.6225 213.267 54.5014 212.904 54.5014C212.42 54.6225 212.178 54.8647 211.936 55.1068C209.519 65.1533 207.708 69.9935 206.377 69.6302C205.651 69.3881 205.409 68.7827 205.409 67.5719C205.409 66.3611 205.53 64.9082 205.772 62.8498C206.014 60.9126 206.377 58.9783 206.619 56.92C206.982 54.9827 207.224 52.6822 207.708 50.2637C208.071 47.8421 208.312 45.9048 208.554 44.4549C208.675 43.3652 208.554 42.5177 208.071 42.1544C207.587 41.6701 206.861 41.6701 205.893 42.0333C201.906 43.4863 198.764 49.177 196.468 59.2205C197.194 51.4745 197.557 46.9976 197.799 46.0289C198.041 43.9706 198.283 42.6387 198.404 42.1544C198.162 42.2755 197.436 42.1544 196.226 42.1544C195.019 42.1544 193.691 42.2755 192.24 42.7598C190.788 43.2441 190.065 43.7284 189.944 44.4549V45.0603C189.944 45.4235 189.944 45.9079 189.823 46.3922V48.0873C189.823 49.2981 189.702 51.5986 189.46 55.2309C189.218 58.8603 189.097 62.1294 188.976 65.1533C188.976 68.3014 188.976 69.9935 189.097 70.3567Z" fill="#E08524"/>
<path d="M219.429 43.0051C219.308 42.8841 218.461 42.763 217.254 42.6419C215.923 42.6419 214.475 42.763 213.026 43.2473C211.453 43.6105 210.606 44.2159 210.606 44.9424L210.364 47.0007C210.364 47.7272 210.243 48.8169 210.243 50.391C209.88 56.3208 210.122 61.5241 210.969 65.88C211.816 70.2388 213.389 72.5363 215.685 72.5363C217.257 72.5363 218.827 70.3569 220.394 65.8769C220.394 66.4854 220.152 67.9353 219.91 70.2358C219.668 72.4152 219.547 74.1103 219.426 75.2C216.649 75.5633 213.991 76.5319 211.574 77.9848C209.156 79.3456 207.087 81.2502 205.531 83.5484C203.595 86.3332 202.388 89.118 202.149 91.9028C201.907 94.6846 202.391 96.7399 203.601 98.314C204.808 99.7669 206.499 100.372 208.794 99.7669C214.596 98.4351 219.308 92.5082 222.811 82.0985C225.956 83.0671 229.217 84.6411 232.48 86.9386C232.722 86.9386 233.085 86.4543 233.327 85.4857C234.171 82.5798 233.811 80.4004 232.117 78.8263C230.182 76.8891 227.765 75.6813 224.746 75.2C226.319 68.6618 228.01 57.7707 229.701 42.2817C229.58 42.1606 228.975 42.0395 227.886 41.9185C226.797 41.7974 225.711 42.0395 224.383 42.4028C223.053 42.766 222.448 43.3714 222.448 43.9768C222.327 44.9454 222.206 45.6719 222.085 46.2743L221.722 49.0591V49.1802C221.722 49.6645 221.601 50.1488 221.48 50.6331L221.117 51.8439C221.117 52.2071 220.996 52.6884 220.875 53.2938C220.391 56.0786 220.031 58.2581 219.789 59.8291C219.547 61.4031 219.184 63.0982 218.821 64.7933C218.458 66.4854 218.095 67.6961 217.856 68.4196C217.614 69.1461 217.251 69.5093 216.888 69.5093C216.525 69.5093 216.404 68.7828 216.404 67.451C216.404 66.1191 216.525 64.0638 216.888 61.5211C217.13 58.9785 217.493 56.1967 217.977 53.1727C218.34 50.1458 218.824 46.7556 219.429 43.0051ZM210.609 96.861C208.673 97.5875 207.104 97.3453 206.015 96.2556C204.926 95.1659 204.442 93.4708 204.442 91.2914C204.563 89.115 205.289 86.9356 206.741 84.8803C209.036 81.6111 212.902 80.4004 218.461 81.2479C216.894 90.2047 214.354 95.4081 210.609 96.861Z" fill="#E08524"/>
</svg>
